HIERARCHY
ROOT hip
{
  OFFSET 0 0 0
  CHANNELS 6 Xposition Yposition Zposition Zrotation Yrotation Xrotation
  JOINT abdomen
  {
    OFFSET 0 20.6881 -0.73152
    CHANNELS 3 Zrotation Xrotation Yrotation
    JOINT chest
    {
      OFFSET 0 11.7043 -0.48768
      CHANNELS 3 Zrotation Xrotation Yrotation
      JOINT neck
      {
        OFFSET 0 22.1894 -2.19456
        CHANNELS 3 Zrotation Xrotation Yrotation
        JOINT head
        {
          OFFSET -0.24384 7.07133 1.2192
          CHANNELS 3 Zrotation Xrotation Yrotation
          JOINT leftEye
          {
            OFFSET 4.14528 8.04674 8.04672
            CHANNELS 3 Zrotation Xrotation Yrotation
            End Site
            {
              OFFSET 1 0 0
            }
          }
          JOINT rightEye
          {
            OFFSET -3.6576 8.04674 8.04672
            CHANNELS 3 Zrotation Xrotation Yrotation
            End Site
            {
              OFFSET 1 0 0
            }
          }
        }
      }
      JOINT rCollar
      {
        OFFSET -2.68224 19.2634 -4.8768
        CHANNELS 3 Zrotation Xrotation Yrotation
        JOINT rShldr
        {
          OFFSET -8.77824 -1.95073 1.46304
          CHANNELS 3 Zrotation Xrotation Yrotation
          JOINT rForeArm
          {
            OFFSET -28.1742 -1.7115 0.48768
            CHANNELS 3 Zrotation Xrotation Yrotation
            JOINT rHand
            {
              OFFSET -22.5879 0.773209 7.07136
              CHANNELS 3 Zrotation Xrotation Yrotation
              JOINT rThumb1
              {
                OFFSET -1.2192 -0.487915 3.41376
                CHANNELS 3 Zrotation Xrotation Yrotation
                JOINT rThumb2
                {
                  OFFSET -3.37035 -0.52449 3.41376
                  CHANNELS 3 Zrotation Xrotation Yrotation
                  End Site
                  {
                    OFFSET -1.78271 -1.18214 1.43049
                  }
                }
              }
              JOINT rIndex1
              {
                OFFSET -7.75947 0.938293 5.60832
                CHANNELS 3 Zrotation Xrotation Yrotation
                JOINT rIndex2
                {
                  OFFSET -2.54057 -0.884171 1.56538
                  CHANNELS 3 Zrotation Xrotation Yrotation
                  End Site
                  {
                    OFFSET -1.62519 -0.234802 1.16502
                  }
                }
              }
              JOINT rMid1
              {
                OFFSET -8.24714 1.18213 3.41376
                CHANNELS 3 Zrotation Xrotation Yrotation
                JOINT rMid2
                {
                  OFFSET -3.10165 -0.590103 1.0647
                  CHANNELS 3 Zrotation Xrotation Yrotation
                  End Site
                  {
                    OFFSET -2.48547 -0.328903 0.83742
                  }
                }
              }
              JOINT rRing1
              {
                OFFSET -8.82822 0.546677 1.51678
                CHANNELS 3 Zrotation Xrotation Yrotation
                JOINT rRing2
                {
                  OFFSET -2.60934 -0.819778 -0.0198488
                  CHANNELS 3 Zrotation Xrotation Yrotation
                  End Site
                  {
                    OFFSET -2.33842 -0.294052 0.168128
                  }
                }
              }
              JOINT rPinky1
              {
                OFFSET -8.27202 -0.0477905 -0.4584
                CHANNELS 3 Zrotation Xrotation Yrotation
                JOINT rPinky2
                {
                  OFFSET -1.82734 -0.647385 -0.700984
                  CHANNELS 3 Zrotation Xrotation Yrotation
                  End Site
                  {
                    OFFSET -1.69225 -0.51767 -0.607171
                  }
                }
              }
            }
          }
        }
      }
      JOINT lCollar
      {
        OFFSET 2.68224 19.2634 -4.8768
        CHANNELS 3 Zrotation Xrotation Yrotation
        JOINT lShldr
        {
          OFFSET 8.77824 -1.95073 1.46304
          CHANNELS 3 Zrotation Xrotation Yrotation
          JOINT lForeArm
          {
            OFFSET 28.1742 -1.7115 0.48768
            CHANNELS 3 Zrotation Xrotation Yrotation
            JOINT lHand
            {
              OFFSET 22.5879 0.773209 7.07136
              CHANNELS 3 Zrotation Xrotation Yrotation
              JOINT lThumb1
              {
                OFFSET 1.2192 -0.487915 3.41376
                CHANNELS 3 Zrotation Xrotation Yrotation
                JOINT lThumb2
                {
                  OFFSET 3.37035 -0.52449 3.41376
                  CHANNELS 3 Zrotation Xrotation Yrotation
                  End Site
                  {
                    OFFSET 1.78271 -1.18214 1.43049
                  }
                }
              }
              JOINT lIndex1
              {
                OFFSET 7.75947 0.938293 5.60832
                CHANNELS 3 Zrotation Xrotation Yrotation
                JOINT lIndex2
                {
                  OFFSET 2.54057 -0.884171 1.56538
                  CHANNELS 3 Zrotation Xrotation Yrotation
                  End Site
                  {
                    OFFSET 1.62519 -0.234802 1.16502
                  }
                }
              }
              JOINT lMid1
              {
                OFFSET 8.24714 1.18213 3.41376
                CHANNELS 3 Zrotation Xrotation Yrotation
                JOINT lMid2
                {
                  OFFSET 3.10165 -0.590103 1.0647
                  CHANNELS 3 Zrotation Xrotation Yrotation
                  End Site
                  {
                    OFFSET 2.48547 -0.328903 0.83742
                  }
                }
              }
              JOINT lRing1
              {
                OFFSET 8.82822 0.546677 1.51678
                CHANNELS 3 Zrotation Xrotation Yrotation
                JOINT lRing2
                {
                  OFFSET 2.60934 -0.819778 -0.0198488
                  CHANNELS 3 Zrotation Xrotation Yrotation
                  End Site
                  {
                    OFFSET 2.33842 -0.294052 0.168128
                  }
                }
              }
              JOINT lPinky1
              {
                OFFSET 8.27202 -0.0477905 -0.4584
                CHANNELS 3 Zrotation Xrotation Yrotation
                JOINT lPinky2
                {
                  OFFSET 1.82734 -0.647385 -0.700984
                  CHANNELS 3 Zrotation Xrotation Yrotation
                  End Site
                  {
                    OFFSET 1.69225 -0.51767 -0.607171
                  }
                }
              }
            }
          }
        }
      }
    }
  }
  JOINT rButtock
  {
    OFFSET -8.77824 4.35084 1.2192
    CHANNELS 3 Zrotation Xrotation Yrotation
    JOINT rThigh
    {
      OFFSET 0 -1.70687 -2.19456
      CHANNELS 3 Zrotation Xrotation Yrotation
      JOINT rShin
      {
        OFFSET 0 -36.8199 0.73152
        CHANNELS 3 Zrotation Xrotation Yrotation
        JOINT rFoot
        {
          OFFSET 0.73152 -45.1104 -5.12064
          CHANNELS 3 Zrotation Xrotation Yrotation
          End Site
          {
            OFFSET -1.1221 -3.69964 12.103
          }
        }
      }
    }
  }
  JOINT lButtock
  {
    OFFSET 8.77824 4.35084 1.2192
    CHANNELS 3 Zrotation Xrotation Yrotation
    JOINT lThigh
    {
      OFFSET 0 -1.70687 -2.19456
      CHANNELS 3 Zrotation Xrotation Yrotation
      JOINT lShin
      {
        OFFSET 0 -36.8199 0.73152
        CHANNELS 3 Zrotation Xrotation Yrotation
        JOINT lFoot
        {
          OFFSET -0.73152 -45.1104 -5.12064
          CHANNELS 3 Zrotation Xrotation Yrotation
          End Site
          {
            OFFSET 1.1221 -3.69964 12.103
          }
        }
      }
    }
  }
}
MOTION
Frames:	7
Frame Time:	0.00833333
-54.6119 85.4272 -78.9831 0.0 0.0 0.0 1.74075 -0.00337331 0.0475549 0.480623 0.000939388 0.0832335 2.17806e-14 7.95139e-16 2.73329e-16 6.55027e-14 9.54166e-15 8.18434e-16 -0.0 0.0 0.0 -0.0 0.0 0.0 1.10813e-14 3.30014e-18 1.98785e-16 2.32622e-13 -1.86361e-16 4.17448e-15 3.97405e-12 -1.18197e-12 3.18055e-14 4.5346e-11 1.20049e-12 5.85222e-13 1.06973e-10 4.47952e-14 1.35174e-12 1.84721e-10 8.26944e-14 2.30749e-12 1.06979e-10 4.53229e-14 1.33583e-12 7.73091 5.47488 0.417314 1.06973e-10 4.48259e-14 1.34537e-12 2.90554 0.965183 0.102902 1.0698e-10 4.52235e-14 1.34219e-12 10.2786 0.731801 0.0259123 1.06969e-10 4.57205e-14 1.35174e-12 2.22167 -0.733487 -0.20892 1.09845e-14 5.43552e-18 0.0 2.29491e-13 -2.17421e-16 2.38542e-15 3.95482e-12 1.19092e-12 6.36111e-15 4.53412e-11 -1.17936e-12 6.23389e-13 1.06928e-10 2.70059e-14 1.33901e-12 1.84672e-10 4.77083e-14 2.31544e-12 1.06928e-10 2.5842e-14 1.35492e-12 -7.73091 5.47488 -0.417314 1.06929e-10 2.70347e-14 1.34219e-12 -2.90554 0.965183 -0.102902 1.06925e-10 2.72335e-14 1.3414e-12 -10.2786 0.731801 -0.0259123 1.06933e-10 2.78299e-14 1.32629e-12 -2.22167 -0.733487 0.20892 -2.03217e-16 0.0 -3.88251e-19 1.78278 -6.93916 -0.17244 0.00357159 7.00589 0.091906 -0.484471 -0.0713241 0.0535436 2.03217e-16 0.0 3.88251e-19 0.870877 -1.92398 0.00259971 0.0087798 -2.07863 0.0722295 0.449349 3.99793 -0.131038
-47.0665 84.5031 -86.6379 -164.998 86.057 -161.47 2.80966 1.75089 0.172913 1.07374 -1.64822 0.203703 -1.60421 -2.28072 -0.932163 0.482333 3.76154 -0.999882 -0.0 0.0 0.0 -0.0 0.0 0.0 -8.50013e-16 -2.63606e-13 1.2009e-14 18.1242 2.73712 -1.5855 -6.07654 -3.26939 8.87391 0.0208997 3.21615 0.449453 -2.11085e-10 -4.08482e-11 -3.77685e-10 -3.68718e-10 -7.42369e-11 -6.51037e-10 -2.11075e-10 -4.08453e-11 -3.77701e-10 7.73091 5.47488 0.417314 -2.11085e-10 -4.08478e-11 -3.77687e-10 2.90554 0.965183 0.102902 -2.11079e-10 -4.0847e-11 -3.77691e-10 10.2786 0.731801 0.0259123 -2.11088e-10 -4.08462e-11 -3.77681e-10 2.22167 -0.733487 -0.20892 -9.96535e-16 -2.63613e-13 1.17524e-14 -21.9083 4.36102 0.461062 7.54213 -4.51126 -10.3671 -0.0901313 -6.66791 0.914351 5.19132e-10 -2.43506e-10 -1.56804e-10 9.01383e-10 -4.0874e-10 -2.61825e-10 5.1913e-10 -2.43507e-10 -1.56789e-10 -7.73091 5.47488 -0.417314 5.19132e-10 -2.43503e-10 -1.56802e-10 -2.90554 0.965183 -0.102902 5.19127e-10 -2.43506e-10 -1.56804e-10 -10.2786 0.731801 -0.0259123 5.19137e-10 -2.43504e-10 -1.56816e-10 -2.22167 -0.733487 0.20892 -2.03217e-16 0.0 -3.88251e-19 0.155751 -6.22581 -2.64619 0.00933842 7.80899 0.14148 -0.557932 -2.03978 -4.6055 2.03217e-16 0.0 3.88251e-19 3.16998 -4.71873 -3.93039 0.000980447 3.3499 -0.080678 0.969957 -0.790818 4.23505
-47.065 84.5051 -86.839 -164.953 86.1665 -161.436 3.92997 3.60082 0.303208 1.70915 -3.39203 0.33064 -3.38081 -4.69249 -1.92089 1.13865 7.73318 -2.06854 -0.0 0.0 0.0 -0.0 0.0 0.0 -1.36104e-14 -5.63998e-13 2.59942e-14 37.4296 5.58679 -3.27198 -11.4123 -6.46434 18.3463 -0.0123774 6.64237 0.933118 -5.72338e-10 -8.90707e-11 -8.12033e-10 -9.97318e-10 -1.6171e-10 -1.39974e-09 -5.72324e-10 -8.90651e-11 -8.12048e-10 7.73091 5.47488 0.417314 -5.72338e-10 -8.90698e-11 -8.1203e-10 2.90554 0.965183 0.102902 -5.72334e-10 -8.90686e-11 -8.12034e-10 10.2786 0.731801 0.0259123 -5.72341e-10 -8.90675e-11 -8.12024e-10 2.22167 -0.733487 -0.20892 -1.38103e-14 -5.64015e-13 2.56743e-14 -45.14 8.94713 0.9549 13.7743 -8.79788 -21.5392 0.0521263 -13.7095 1.92281 9.80729e-10 -5.22684e-10 -3.3201e-10 1.70402e-09 -8.77695e-10 -5.54378e-10 9.80725e-10 -5.22684e-10 -3.31998e-10 -7.73091 5.47488 -0.417314 9.80729e-10 -5.22676e-10 -3.32011e-10 -2.90554 0.965183 -0.102902 9.80722e-10 -5.22683e-10 -3.32012e-10 -10.2786 0.731801 -0.0259123 9.80735e-10 -5.22679e-10 -3.32021e-10 -2.22167 -0.733487 0.20892 -2.03217e-16 0.0 -3.88251e-19 -1.48718 -5.46573 -5.25564 0.0138953 8.65716 0.194042 -0.981484 -4.06695 -9.55263 2.03217e-16 0.0 3.88251e-19 5.1897 -7.61821 -8.14015 0.0245225 9.08186 -0.245034 2.31508 -5.78592 8.90351
-47.0779 84.5012 -87.0264 -164.004 86.2781 -160.468 4.92436 5.25929 0.425178 2.28085 -4.94643 0.446051 -5.03652 -6.83488 -2.81429 1.84725 11.2707 -3.0521 -0.0 0.0 0.0 -0.0 0.0 0.0 -2.47126e-14 -7.90825e-13 3.56294e-14 54.8304 8.18608 -4.80009 -15.2829 -8.86877 26.9254 -0.0905072 9.64606 1.36555 -8.472e-10 -1.22634e-10 -1.13576e-09 -1.4756e-09 -2.22876e-10 -1.95773e-09 -8.47182e-10 -1.22627e-10 -1.13577e-09 7.73091 5.47488 0.417314 -8.472e-10 -1.22633e-10 -1.13575e-09 2.90554 0.965183 0.102902 -8.47197e-10 -1.22631e-10 -1.13576e-09 10.2786 0.731801 0.0259123 -8.47203e-10 -1.2263e-10 -1.13575e-09 2.22167 -0.733487 -0.20892 -2.49586e-14 -7.9085e-13 3.52571e-14 -65.9402 13.0796 1.41592 17.9117 -11.7614 -31.7452 0.402571 -19.9827 2.89918 1.34354e-09 -7.30573e-10 -4.73089e-10 2.3348e-09 -1.22631e-09 -7.90106e-10 1.34353e-09 -7.30573e-10 -4.73078e-10 -7.73091 5.47488 -0.417314 1.34354e-09 -7.30562e-10 -4.73091e-10 -2.90554 0.965183 -0.102902 1.34353e-09 -7.30572e-10 -4.73093e-10 -10.2786 0.731801 -0.0259123 1.34355e-09 -7.30567e-10 -4.73099e-10 -2.22167 -0.733487 0.20892 -2.03217e-16 0.0 -3.88251e-19 -2.91301 -4.77696 -7.57584 0.0166453 9.41515 0.241315 -1.65889 -5.8199 -13.9884 2.03217e-16 0.0 3.88251e-19 6.61061 -10.1222 -11.9449 0.0741966 14.2066 -0.398162 4.20594 -10.1075 13.1734
-47.0898 84.4968 -87.2137 -162.597 86.3685 -159.04 5.61943 6.43916 0.524985 2.6787 -6.02738 0.531374 -6.23171 -8.3107 -3.4524 2.40378 13.7361 -3.77342 -0.0 0.0 0.0 -0.0 0.0 0.0 -3.16695e-14 -8.33739e-13 3.43897e-14 67.1564 10.1825 -5.89368 -17.5332 -10.1935 32.9814 -0.16781 11.5958 1.65254 -9.06086e-10 -1.19551e-10 -1.18293e-09 -1.57808e-09 -2.18272e-10 -2.03892e-09 -9.06066e-10 -1.19542e-10 -1.18294e-09 7.73091 5.47488 0.417314 -9.06085e-10 -1.19549e-10 -1.18292e-09 2.90554 0.965183 0.102902 -9.06083e-10 -1.19547e-10 -1.18293e-09 10.2786 0.731801 0.0259123 -9.06088e-10 -1.19546e-10 -1.18292e-09 2.22167 -0.733487 -0.20892 -3.19435e-14 -8.33767e-13 3.39922e-14 -80.5118 16.0812 1.76505 20.0961 -13.1331 -38.9137 0.787383 -24.355 3.64756 1.45938e-09 -7.60245e-10 -5.2885e-10 2.53596e-09 -1.27409e-09 -8.83771e-10 1.45937e-09 -7.60244e-10 -5.2884e-10 -7.73091 5.47488 -0.417314 1.45938e-09 -7.60233e-10 -5.28853e-10 -2.90554 0.965183 -0.102902 1.45937e-09 -7.60244e-10 -5.28855e-10 -10.2786 0.731801 -0.0259123 1.45939e-09 -7.60238e-10 -5.28859e-10 -2.22167 -0.733487 0.20892 -2.03217e-16 0.0 -3.88251e-19 -3.92565 -4.27838 -9.18436 0.0178513 9.94773 0.274852 -2.30746 -7.03517 -17.0855 2.03217e-16 0.0 3.88251e-19 7.35518 -11.8094 -14.605 0.126083 17.8137 -0.511007 5.90462 -13.0137 16.2115
-47.0949 84.4938 -87.4168 -161.408 86.4249 -157.852 5.90647 6.96026 0.599625 2.8265 -6.43781 0.575839 -6.70635 -8.85671 -3.72107 2.60275 14.6902 -4.09288 -0.0 0.0 0.0 -0.0 0.0 0.0 -3.36431e-14 -5.80625e-13 1.44367e-14 72.202 11.3995 -6.3303 -18.3264 -10.6206 35.3701 -0.193432 12.0664 1.72319 -5.76891e-10 -3.9822e-11 -7.30031e-10 -1.00537e-09 -7.69417e-11 -1.25793e-09 -5.76873e-10 -3.98139e-11 -7.3004e-10 7.73091 5.47488 0.417314 -5.7689e-10 -3.98196e-11 -7.30022e-10 2.90554 0.965183 0.102902 -5.76888e-10 -3.98181e-11 -7.30026e-10 10.2786 0.731801 0.0259123 -5.76891e-10 -3.98171e-11 -7.30015e-10 2.22167 -0.733487 -0.20892 -3.39193e-14 -5.80649e-13 1.40613e-14 -86.2776 17.5391 1.9217 20.7831 -13.4417 -41.6079 0.975911 -26.1009 3.96649 1.15205e-09 -4.74797e-10 -4.55056e-10 2.00108e-09 -7.89376e-10 -7.62676e-10 1.15204e-09 -4.74796e-10 -4.55047e-10 -7.73091 5.47488 -0.417314 1.15205e-09 -4.74786e-10 -4.55059e-10 -2.90554 0.965183 -0.102902 1.15204e-09 -4.74795e-10 -4.55061e-10 -10.2786 0.731801 -0.0259123 1.15205e-09 -4.7479e-10 -4.55065e-10 -2.22167 -0.733487 0.20892 -2.03217e-16 0.0 -3.88251e-19 -4.42319 -4.03447 -9.79606 0.0182273 10.1648 0.288911 -2.63108 -7.61656 -18.2605 2.03217e-16 0.0 3.88251e-19 7.51262 -12.4548 -15.5814 0.150948 19.297 -0.557441 6.63385 -14.1371 17.348
-47.0928 84.4934 -87.6436 -161.004 86.4511 -157.478 5.90388 7.0103 0.655637 2.79403 -6.36967 0.590756 -6.64966 -8.74009 -3.72241 2.51431 14.5686 -4.11438 -0.0 0.0 0.0 -0.0 0.0 0.0 -3.20182e-14 -1.17897e-13 -1.87168e-14 72.0086 12.0629 -6.28901 -18.2429 -10.5783 35.1101 -0.173433 11.481 1.63688 2.54233e-11 9.34467e-11 7.46875e-11 4.25166e-11 1.59924e-10 1.29628e-10 2.5436e-11 9.34529e-11 7.4684e-11 7.73091 5.47488 0.417314 2.54243e-11 9.34498e-11 7.46934e-11 2.90554 0.965183 0.102902 2.5427e-11 9.3451e-11 7.46918e-11 10.2786 0.731801 0.0259123 2.5424e-11 9.34513e-11 7.47011e-11 2.22167 -0.733487 -0.20892 -3.22783e-14 -1.17913e-13 -1.90367e-14 -85.7349 17.8934 1.93408 20.6183 -13.2954 -41.0699 0.959389 -25.9747 3.94236 5.46143e-10 3.26135e-11 -2.89204e-10 9.46851e-10 7.03849e-11 -4.88936e-10 5.46136e-10 3.26137e-11 -2.89196e-10 -7.73091 5.47488 -0.417314 5.46144e-10 3.26207e-11 -2.89206e-10 -2.90554 0.965183 -0.102902 5.46135e-10 3.26157e-11 -2.89208e-10 -10.2786 0.731801 -0.0259123 5.46147e-10 3.26196e-11 -2.89212e-10 -2.22167 -0.733487 0.20892 -2.03217e-16 0.0 -3.88251e-19 -4.56661 -3.97268 -9.69671 0.0183311 10.1564 0.28899 -2.65255 -7.77533 -18.0515 2.03217e-16 0.0 3.88251e-19 7.33353 -12.3887 -15.3331 0.148867 19.2634 -0.553206 6.50768 -14.0469 17.0715
